<svg xmlns="http://www.w3.org/2000/svg" viewBox="0 0 64 64" width="64" height="64" role="img" aria-label="File Panel">
  <defs>
    <linearGradient id="bg" x1="0" y1="0" x2="1" y2="1">
      <stop offset="0%" stop-color="#0f172a"/>
      <stop offset="100%" stop-color="#1d4ed8"/>
    </linearGradient>
    <linearGradient id="accent" x1="0" y1="0" x2="1" y2="1">
      <stop offset="0%" stop-color="#60a5fa"/>
      <stop offset="100%" stop-color="#34d399"/>
    </linearGradient>
  </defs>

  <rect x="4" y="4" width="56" height="56" rx="14" fill="url(#bg)"/>

  <path d="M18 22c0-2.2 1.8-4 4-4h6.8c1.2 0 2.3.5 3 1.4l1.3 1.6c.3.4.8.6 1.3.6H42c2.2 0 4 1.8 4 4v14.8c0 2.2-1.8 4-4 4H22c-2.2 0-4-1.8-4-4V22z" fill="#eff6ff"/>
  <path d="M18 26h28" stroke="#93c5fd" stroke-width="2.6" stroke-linecap="round"/>

  <circle cx="24" cy="36" r="3.6" fill="url(#accent)"/>
  <circle cx="34" cy="31" r="3.6" fill="url(#accent)"/>
  <circle cx="40" cy="40" r="3.6" fill="url(#accent)"/>
  <path d="M27 34.6l4.1-2.1m5 1.9l1.8 2.8m-11.1 1.1l9.4 1.2" stroke="#2563eb" stroke-width="2.4" stroke-linecap="round"/>

  <path d="M22.5 49l2.2-1.9-2.2-1.9" fill="none" stroke="#bfdbfe" stroke-width="2.1" stroke-linecap="round" stroke-linejoin="round"/>
  <path d="M28.2 49h7.3" stroke="#bfdbfe" stroke-width="2.1" stroke-linecap="round"/>
</svg>
